# xmcd
# 
# Track frame offsets:
#     150
#     54908
#     99939
#     165741
#     199072
#     249341
# 
# Disc length: 3536
# 
# Revision: 1
# Processed by: cddbd v1.5.2PL0 Copyright (c) Steve Scherf et al.
# Submitted via: BonkEnc v1.0.8
# 
DISCID=410dce06
DTITLE=Third World Love [Avishai Cohen, Yonatan Avishai, Omer Avital, Daniel Freedman] - Third World Love Songs
DYEAR=2002
DGENRE=Contemporary Jazz
TTITLE0=Bina
TTITLE1=Musicians Without Boundaries
TTITLE2=Flamingo/Brown And green
TTITLE3=Third World Love Story
TTITLE4=Assal
TTITLE5=Sketch Of Barcelona
EXTD=YEAR: 2002
EXTT0=
EXTT1=
EXTT2=
EXTT3=
EXTT4=
EXTT5=
PLAYORDER=
